<svg width="18" height="20" viewBox="0 0 18 20" fill="none" xmlns="http://www.w3.org/2000/svg">
<path d="M15.1316 4.27729C14.997 4.20752 14.8659 4.13104 14.739 4.04813C14.3698 3.80333 14.0312 3.51489 13.7307 3.18901C12.9788 2.32613 12.6979 1.45076 12.5945 0.837875H12.5986C12.5122 0.32915 12.548 0 12.5534 0H9.12848V13.2818C9.12848 13.4602 9.12848 13.6364 9.121 13.8106C9.121 13.8322 9.11892 13.8522 9.11768 13.8756C9.11768 13.8851 9.11768 13.8951 9.1156 13.9051C9.1156 13.9076 9.1156 13.9101 9.1156 13.9126C9.0795 14.3892 8.92718 14.8495 8.67204 15.2532C8.4169 15.6568 8.06676 15.9914 7.65242 16.2275C7.22059 16.4739 6.73218 16.6032 6.23536 16.6025C4.63966 16.6025 3.3464 15.2976 3.3464 13.686C3.3464 12.0744 4.63966 10.7695 6.23536 10.7695C6.53742 10.7692 6.83762 10.8169 7.12482 10.9107L7.12897 7.41338C6.25712 7.30043 5.37138 7.36992 4.52765 7.61747C3.68391 7.86502 2.90049 8.28524 2.2268 8.85164C1.63649 9.36603 1.14021 9.97979 0.760299 10.6653C0.615726 10.9153 0.0702556 11.9198 0.00420086 13.5502C-0.037343 14.4755 0.239754 15.4342 0.371864 15.8305V15.8388C0.454952 16.0721 0.776916 16.8683 1.30162 17.5395C1.72471 18.078 2.22459 18.5509 2.78515 18.9432V18.9349L2.79345 18.9432C4.45147 20.0732 6.28979 19.999 6.28979 19.999C6.60801 19.9861 7.67403 19.999 8.88461 19.4236C10.2273 18.7857 10.9917 17.8354 10.9917 17.8354C11.4801 17.2675 11.8684 16.6204 12.14 15.9217C12.4499 15.1047 12.5534 14.1247 12.5534 13.7331V6.68675C12.5949 6.71175 13.1483 7.07881 13.1483 7.07881C13.1483 7.07881 13.9455 7.59129 15.1893 7.92502C16.0817 8.16251 17.284 8.21251 17.284 8.21251V4.80268C16.8627 4.84851 16.0073 4.71518 15.1316 4.27729Z" fill="white"/>
</svg>
