<svg width="20" height="20" viewBox="0 0 20 20" fill="none" xmlns="http://www.w3.org/2000/svg">
<path d="M14.0419 0H5.95811C2.67279 0 0 2.67279 0 5.95811V14.0419C0 17.3272 2.67279 20 5.95811 20H14.0419C17.3272 20 20 17.3272 20 14.0419V5.95811C20 2.67279 17.3272 0 14.0419 0ZM17.988 14.0419C17.988 16.2213 16.2213 17.988 14.0419 17.988H5.95811C3.77875 17.988 2.012 16.2213 2.012 14.0419V5.95811C2.012 3.77871 3.77875 2.012 5.95811 2.012H14.0419C16.2213 2.012 17.988 3.77871 17.988 5.95811V14.0419Z" fill="white"/>
<path d="M10 4.82729C7.14776 4.82729 4.82729 7.14776 4.82729 9.99996C4.82729 12.8522 7.14776 15.1727 10 15.1727C12.8522 15.1727 15.1727 12.8522 15.1727 9.99996C15.1727 7.14773 12.8522 4.82729 10 4.82729ZM10 13.1607C8.25437 13.1607 6.83929 11.7456 6.83929 10C6.83929 8.25437 8.25441 6.83929 10 6.83929C11.7456 6.83929 13.1607 8.25437 13.1607 10C13.1607 11.7456 11.7456 13.1607 10 13.1607Z" fill="white"/>
<path d="M15.1826 6.10565C15.8671 6.10565 16.422 5.55073 16.422 4.8662C16.422 4.18167 15.8671 3.62675 15.1826 3.62675C14.4981 3.62675 13.9431 4.18167 13.9431 4.8662C13.9431 5.55073 14.4981 6.10565 15.1826 6.10565Z" fill="white"/>
</svg>
