<svg width="32" height="44" viewBox="0 0 32 44" fill="none" xmlns="http://www.w3.org/2000/svg">
<path d="M9.10885 10.3924H3.68354C2.20146 10.3924 1 11.5939 1 13.0759V30.5189C1 34.2241 4.00365 37.2278 7.70885 37.2278H15.8177M9.10885 10.3924H23.1974M9.10885 10.3924V15.7595M9.10885 10.3924V8.04429C9.10885 4.15384 12.2627 1 16.1531 1C20.0436 1 23.1974 4.15384 23.1974 8.04429V10.3924M23.1974 10.3924H27.9519C29.4339 10.3924 30.6354 11.5939 30.6354 13.0759V27.4708M23.1974 10.3924V15.7595M20.1375 27.2504L18.8124 24.9552M23.2183 26.4908V23.8405M18.0541 29.4724L15.7588 28.1472M27.8754 37.4724L29.9956 41.1447C30.142 41.3982 30.0551 41.7224 29.8016 41.8688L27.9654 42.9289C27.7119 43.0753 27.3877 42.9884 27.2413 42.7349L25.1211 39.0625C24.9747 38.809 24.6505 38.7221 24.397 38.8685L22.3855 40.0299C22.0443 40.2269 21.615 39.9959 21.5914 39.6026L20.9961 29.6857C20.97 29.2497 21.4528 28.971 21.8173 29.2116L30.1079 34.6855C30.4367 34.9027 30.4221 35.3899 30.0809 35.5869L28.0694 36.7483C27.8158 36.8947 27.729 37.2188 27.8754 37.4724Z" stroke="#CF9056" stroke-width="1.4" stroke-linecap="round"/>
</svg>
