<svg width="274" height="300" viewBox="0 0 274 300" fill="none" xmlns="http://www.w3.org/2000/svg">
<path d="M131 0L131.585 2.58844L133.828 1.17157L132.412 3.41531L135 4L132.412 4.58469L133.828 6.82843L131.585 5.41156L131 8L130.415 5.41156L128.172 6.82843L129.588 4.58469L127 4L129.588 3.41531L128.172 1.17157L130.415 2.58844L131 0Z" fill="#FBBB81"/>
<path d="M204 292L204.585 294.588L206.828 293.172L205.412 295.415L208 296L205.412 296.585L206.828 298.828L204.585 297.412L204 300L203.415 297.412L201.172 298.828L202.588 296.585L200 296L202.588 295.415L201.172 293.172L203.415 294.588L204 292Z" fill="#FBBB81"/>
<path d="M8.88889 87C8.88889 91.4183 8.49092 95 8 95C7.50908 95 7.11111 91.4183 7.11111 87C7.11111 82.5817 7.50908 79 8 79C8.49092 79 8.88889 82.5817 8.88889 87Z" fill="#FBCA81"/>
<path d="M8 87.8889C3.58172 87.8889 -2.14588e-08 87.4909 0 87C2.14588e-08 86.5091 3.58172 86.1111 8 86.1111C12.4183 86.1111 16 86.5091 16 87C16 87.4909 12.4183 87.8889 8 87.8889Z" fill="#FBCA81"/>
<path d="M256.556 49C256.556 51.7614 256.307 54 256 54C255.693 54 255.444 51.7614 255.444 49C255.444 46.2386 255.693 44 256 44C256.307 44 256.556 46.2386 256.556 49Z" fill="#FBBB81"/>
<path d="M256 49.5556C253.239 49.5556 251 49.3068 251 49C251 48.6932 253.239 48.4444 256 48.4444C258.761 48.4444 261 48.6932 261 49C261 49.3068 258.761 49.5556 256 49.5556Z" fill="#FBBB81"/>
<path d="M107 115L107.585 117.588L109.828 116.172L108.412 118.415L111 119L108.412 119.585L109.828 121.828L107.585 120.412L107 123L106.415 120.412L104.172 121.828L105.588 119.585L103 119L105.588 118.415L104.172 116.172L106.415 117.588L107 115Z" fill="#FBCA81"/>
<path d="M270 185L270.585 187.588L272.828 186.172L271.412 188.415L274 189L271.412 189.585L272.828 191.828L270.585 190.412L270 193L269.415 190.412L267.172 191.828L268.588 189.585L266 189L268.588 188.415L267.172 186.172L269.415 187.588L270 185Z" fill="#FBCA81"/>
</svg>
