<svg width="14" height="12" viewBox="0 0 14 12" fill="none" xmlns="http://www.w3.org/2000/svg">
<path d="M7 11.2857C6.93648 11.2857 6.87293 11.271 6.81459 11.2413C6.7558 11.2115 5.35891 10.4974 3.94186 9.29932C3.10049 8.58799 2.42772 7.85276 1.94234 7.11404C1.31705 6.16249 1 5.20021 1 4.25399C1 2.45973 2.43879 1 4.20731 1C5.40343 1 6.44869 1.6676 7 2.65493C7.55131 1.6676 8.59661 1 9.79269 1C11.5612 1 13 2.45973 13 4.25399C13 5.20021 12.6829 6.16249 12.0577 7.11404C11.5722 7.85276 10.8995 8.58799 10.0581 9.29937C8.64113 10.4974 7.2442 11.2115 7.18541 11.2413C7.12707 11.271 7.06352 11.2857 7 11.2857Z" stroke="#CF9056" stroke-width="1.4" stroke-linejoin="round"/>
</svg>
