<svg width="60" height="20" viewBox="0 0 60 20" fill="none" xmlns="http://www.w3.org/2000/svg">
<path d="M25.9996 19.1392H21.1392L24.1792 0.341797H29.0394L25.9996 19.1392Z" fill="#636363"/>
<path d="M43.6197 0.80028C42.661 0.419941 41.1404 0 39.2602 0C34.4604 0 31.0804 2.55951 31.0597 6.21885C31.0198 8.91869 33.4797 10.4183 35.3194 11.3185C37.1999 12.2384 37.8391 12.8388 37.8391 13.6587C37.82 14.918 36.3196 15.4985 34.9202 15.4985C32.9797 15.4985 31.94 15.1992 30.3599 14.4986L29.7199 14.1983L29.0397 18.4179C30.1797 18.9372 32.2799 19.3981 34.4604 19.4183C39.5603 19.4183 42.8805 16.8984 42.9198 12.9988C42.9392 10.8589 41.6403 9.2193 38.84 7.87947C37.1401 7.01939 36.099 6.43945 36.099 5.55943C36.1189 4.75942 36.9795 3.94 38.8985 3.94C40.4786 3.89987 41.6396 4.27968 42.519 4.65975L42.9586 4.85935L43.6197 0.80028Z" fill="#636363"/>
<path d="M50.0791 12.4799C50.4794 11.4001 52.0196 7.22059 52.0196 7.22059C51.9994 7.26072 52.4191 6.12077 52.6591 5.42096L52.9988 7.04065C52.9988 7.04065 53.9192 11.5401 54.1191 12.4799C53.3595 12.4799 51.0391 12.4799 50.0791 12.4799ZM56.0787 0.341797H52.3192C51.1598 0.341797 50.279 0.681471 49.7788 1.90143L42.5593 19.1389H47.6592C47.6592 19.1389 48.4988 16.8189 48.6792 16.3192C49.2387 16.3192 54.1999 16.3192 54.9196 16.3192C55.0591 16.9792 55.4996 19.1389 55.4996 19.1389H59.9998L56.0787 0.341797Z" fill="#636363"/>
<path d="M17.0797 0.341797L12.3197 13.1598L11.7996 10.5602C10.9195 7.56053 8.15963 4.30147 5.07971 2.68097L9.43965 19.1193H14.5794L22.2191 0.341797H17.0797Z" fill="#636363"/>
<path d="M7.89994 0.341797H0.080001L0 0.721604C6.10004 2.2815 10.14 6.04156 11.7998 10.561L10.0998 1.92189C9.81997 0.721338 8.95989 0.381399 7.89994 0.341797Z" fill="#636363"/>
</svg>
