<svg width="35" height="44" viewBox="0 0 35 44" fill="none" xmlns="http://www.w3.org/2000/svg">
<path d="M6.17032 43C3.08929 43 0.723503 40.3316 1.0261 37.2781C1.0261 37.1405 1.05361 37.003 1.08112 36.8104C1.43874 33.5368 1.6038 30.2632 1.63131 26.9621C1.63131 25.6967 1.74134 24.4313 2.01644 23.6885C2.75918 21.8729 5.37256 15.7109 5.37256 15.7109L9.74652 10.2641C10.0766 9.87893 10.4893 9.57633 10.9569 9.38377C12.5249 8.80607 16.1562 7.45812 16.5963 7.12801C17.2015 6.74288 17.4491 9.71388 15.6885 10.9793C13.9004 12.2447 12.6075 13.2351 12.6075 13.2351L9.66399 16.7562C9.66399 16.7562 15.1383 12.1622 16.5688 11.5295C17.9993 10.8968 21.5205 7.89827 21.5205 7.89827C21.5205 7.89827 26.4446 2.03881 27.545 1.35108C28.6728 0.635843 30.626 0.773389 28.0126 4.07449C25.3717 7.3756 24.519 9.60384 23.9963 9.98897C23.4736 10.3741 19.8424 14.2254 19.8424 14.2254L27.3524 7.15552C27.3524 7.15552 31.2312 1.68119 33.597 2.34141C35.9628 3.00163 31.5063 6.41277 31.0386 7.76072C31.0386 7.76072 30.1583 10.8418 29.3881 12.1072C28.5903 13.3726 28.0676 15.0232 27.9301 15.6284C27.7926 16.2336 26.6922 17.664 26.6922 17.664C26.6922 17.664 27.3524 19.2321 26.4996 20.635C25.6468 22.038 22.8134 26.3019 22.8134 26.3019L13.2127 33.922C13.2127 33.922 12.0573 35.9301 11.3696 38.9011C10.8194 41.2669 8.75619 43 6.30787 43H6.17032V43Z" stroke="#CF9056" stroke-width="1.4" stroke-miterlimit="10" stroke-linecap="round" stroke-linejoin="round"/>
<path d="M7.4082 18.7369L9.66396 16.7562" stroke="#CF9056" stroke-width="1.4" stroke-miterlimit="10" stroke-linecap="round" stroke-linejoin="round"/>
<path d="M22.7583 22.0105L26.6921 17.664" stroke="#CF9056" stroke-width="1.4" stroke-miterlimit="10" stroke-linecap="round" stroke-linejoin="round"/>
<path d="M22.0156 17.9667L27.8751 12.3548L31.0386 7.76074" stroke="#CF9056" stroke-width="1.4" stroke-miterlimit="10" stroke-linecap="round" stroke-linejoin="round"/>
</svg>
