<svg width="40" height="39" viewBox="0 0 40 39" fill="none" xmlns="http://www.w3.org/2000/svg">
<path d="M1 9.36986V30C1 34.4183 4.58172 38 9 38H34.3151C35.465 38 36.3973 37.0678 36.3973 35.9178V30.9726M1 9.36986C1 11.2386 2.51581 12.7534 4.38449 12.7534H32.2329M1 9.36986C1 7.50117 2.51487 5.9863 4.38356 5.9863H7.46967M32.2329 12.7534H35.3562C35.9311 12.7534 36.3973 13.2195 36.3973 13.7945V20.0411M32.2329 12.7534V7.0274C32.2329 6.45242 31.7668 5.9863 31.1918 5.9863H28.7378M8.28767 10.1507L13.4932 4.51142M13.4932 4.51142L16.297 1.47396C17.0477 0.660623 18.3163 0.611756 19.1275 1.36494L22.516 4.51142M13.4932 4.51142C14.9102 5.66819 18.6986 7.28767 22.516 4.51142M22.516 4.51142L28.589 10.1507M18.6986 10.1507L20 8.84931M36.3973 20.0411H30.411C27.3923 20.0411 24.9452 22.4882 24.9452 25.5068C24.9452 28.5255 27.3923 30.9726 30.411 30.9726H36.3973M36.3973 20.0411H36.4795C37.584 20.0411 38.4795 20.9365 38.4795 22.0411V28.9726C38.4795 30.0772 37.584 30.9726 36.4795 30.9726H36.3973M30.6712 25.5068C30.6712 26.2256 30.0886 26.8082 29.3699 26.8082C28.6511 26.8082 28.0685 26.2256 28.0685 25.5068C28.0685 24.7881 28.6511 24.2055 29.3699 24.2055C30.0886 24.2055 30.6712 24.7881 30.6712 25.5068Z" stroke="#CF9056" stroke-width="1.4" stroke-linecap="round"/>
</svg>
