<svg width="17" height="20" viewBox="0 0 17 20" fill="none" xmlns="http://www.w3.org/2000/svg">
<path fill-rule="evenodd" clip-rule="evenodd" d="M10.1986 1.93694H11.1984V6.11306C11.1984 6.16841 11.2028 6.22435 11.2125 6.2786C11.2428 6.45069 11.3691 6.5317 11.5336 6.47424C11.7342 6.40433 11.8873 6.26446 12.017 6.09965C12.033 6.0792 12.0326 6.04336 12.0322 6.01166C12.0321 6.00688 12.0321 6.00218 12.0321 5.99765V1.93694H13.0392L13.0389 7.41303H12.0315L12.0327 6.82473C11.9973 6.85985 11.9636 6.89423 11.9307 6.92777C11.86 6.99978 11.7931 7.06792 11.7218 7.13117C11.5366 7.29549 11.3269 7.41801 11.0815 7.46637C10.7048 7.54052 10.3839 7.42062 10.2638 7.02765C10.2238 6.89676 10.1996 6.75568 10.1986 6.61902V1.93694ZM7.91045 1.79986C8.70711 1.79986 9.35292 2.45036 9.35292 3.2528V6.09626C9.35292 6.8987 8.70711 7.5492 7.91045 7.5492C7.11378 7.5492 6.46797 6.8987 6.46797 6.09626V3.2528C6.46791 2.45036 7.11372 1.79986 7.91045 1.79986ZM4.03015 0C4.03015 0 4.4883 1.96006 4.70699 2.88854H4.70735C4.92603 1.96006 5.38418 0 5.38418 0H6.53056C6.53056 0 5.6498 2.94224 5.25593 4.25441C5.24171 4.3018 5.23526 4.35338 5.23526 4.40307L5.23574 7.41188H4.17865L4.17907 4.40307C4.17907 4.35338 4.17256 4.30186 4.15841 4.25441C3.76453 2.94224 2.88377 0 2.88377 0H4.03015ZM16.6353 17.4637C16.6353 18.8096 15.5678 19.9091 14.2322 19.9377C10.3844 20.0208 6.53484 20.0208 2.68647 19.9377C1.35147 19.9091 0.283951 18.8096 0.283951 17.4637V11.4102C0.283951 10.0649 1.35147 8.96531 2.68647 8.93679C6.53484 8.85366 10.3844 8.85366 14.2322 8.93679C15.5678 8.96531 16.6353 10.0649 16.6353 11.4102V17.4637ZM7.91042 6.57296C8.13995 6.57296 8.32664 6.38491 8.32664 6.15372V3.19546C8.32664 2.96427 8.13989 2.77621 7.91042 2.77621C7.68095 2.77621 7.4942 2.96433 7.4942 3.19546V6.15372C7.49413 6.38485 7.68089 6.57296 7.91042 6.57296ZM11.4501 13.0018C11.2429 12.557 10.8073 12.4392 10.4296 12.5345C10.2007 12.5928 10.0151 12.7257 9.86273 12.8974C9.81212 12.955 9.7567 13.0667 9.7567 13.0667V10.6388H8.77232V18.0146H9.7567V17.6008C9.7567 17.6008 9.82658 17.6754 9.85188 17.7027C10.0778 17.9497 10.3519 18.085 10.6899 18.088C11.1056 18.0923 11.3947 17.8896 11.5261 17.4915C11.5869 17.3065 11.6068 17.1159 11.6074 16.923C11.6086 15.892 11.6086 14.861 11.6068 13.83C11.6068 13.5448 11.5724 13.2646 11.4501 13.0018ZM10.5935 16.7998C10.5935 16.8551 10.5869 16.9109 10.5754 16.9649C10.5302 17.1809 10.367 17.278 10.1356 17.2301C9.99526 17.2009 9.88562 17.1196 9.79164 17.0171C9.78742 17.0122 9.75971 16.9746 9.75971 16.9746L9.7573 13.6189C9.7573 13.6189 9.77839 13.5583 9.82477 13.5176C9.94044 13.4144 10.0682 13.3495 10.2278 13.3653C10.364 13.3786 10.4724 13.4417 10.523 13.5686C10.561 13.6651 10.5911 13.7725 10.5917 13.8756C10.5961 14.7688 10.5949 15.6621 10.5938 16.5559L10.5935 16.7998ZM6.80474 16.6287C6.80474 16.6626 6.80474 16.7051 6.78606 16.7288C6.65955 16.8932 6.50894 17.0304 6.31134 17.1032C6.13965 17.1663 6.00289 17.0892 5.96675 16.9096C5.95229 16.8386 5.95168 16.764 5.95168 16.6912C5.95108 15.3531 5.94747 12.6098 5.94566 12.5764H4.9655L4.96548 12.6205C4.96537 13.0506 4.96443 16.4774 4.9667 17.1572C4.9673 17.3526 4.98779 17.5468 5.06851 17.7282C5.15526 17.9248 5.29924 18.0492 5.51371 18.085C5.67095 18.1123 5.82457 18.0947 5.97397 18.0431C6.28001 17.9369 6.51978 17.7367 6.73124 17.4964C6.74398 17.4819 6.75727 17.4677 6.77572 17.448L6.77579 17.4479L6.7759 17.4478L6.78962 17.4332C6.7945 17.4279 6.79973 17.4223 6.80534 17.4163V18.0158H7.78791V12.5679L6.80474 12.5703V16.6287ZM1.55813 10.6395H4.96792V11.6941H3.81667V18.0153H2.70698V11.6965H1.55813V10.6395ZM14.2623 16.0813V16.781C14.2623 17.0255 14.0659 17.2233 13.8238 17.2233C13.581 17.2233 13.3846 17.0255 13.3846 16.781V15.4199H15.2696C15.2696 15.4199 15.2805 14.4702 15.2726 14.0394C15.2696 13.8555 15.2557 13.6692 15.2184 13.4896C15.1208 13.0236 14.872 12.6723 14.4063 12.5181C14.2696 12.4726 14.1226 12.4489 13.9786 12.4398C13.4996 12.4089 13.0803 12.5466 12.7526 12.9162C12.4653 13.2396 12.3653 13.6292 12.3647 14.0515C12.3644 14.1616 12.3641 14.2717 12.3638 14.3818C12.3621 15.0795 12.3603 15.7775 12.3671 16.4751C12.3695 16.6808 12.3924 16.8908 12.4388 17.091C12.5388 17.5213 12.7719 17.8593 13.1834 18.0462C13.484 18.1833 13.8015 18.19 14.122 18.1426C14.6389 18.0662 14.9913 17.7871 15.1618 17.284C15.2901 16.9072 15.275 16.0813 15.275 16.0813H14.2623ZM13.3846 13.8119C13.3846 13.568 13.581 13.3695 13.8238 13.3695C14.0659 13.3695 14.2623 13.568 14.2623 13.8119V14.5759H13.3846V13.8119Z" fill="white"/>
</svg>
