<svg width="39" height="44" viewBox="0 0 39 44" fill="none" xmlns="http://www.w3.org/2000/svg">
<path d="M35.0175 21.3041C27.8947 19.7485 22.3684 14.0994 21.0994 6.89474C20.6901 4.68421 20.1988 2.63743 19.5439 1C18.8889 2.63743 18.3977 4.72515 17.9883 6.93567C16.6784 14.0994 11.1111 19.7895 3.9883 21.345C2.22807 21.7135 1 22 1 22C2.22807 22.4912 3.53801 22.9006 4.88889 23.2281C11.6842 24.9474 16.7602 30.5965 18.0702 37.4737C18.4386 39.5205 18.9298 41.4444 19.5439 43C20.1579 41.4854 20.6491 39.5614 21.0175 37.4737C22.3275 30.5965 27.4035 24.9474 34.1988 23.2281C35.5497 22.9006 36.8597 22.4912 38.0877 22C38.0468 21.9591 36.8187 21.6725 35.0175 21.3041Z" stroke="#CF9056" stroke-width="1.4" stroke-miterlimit="10" stroke-linecap="round" stroke-linejoin="round"/>
</svg>
