<svg width="91" height="13" viewBox="0 0 91 13" fill="none" xmlns="http://www.w3.org/2000/svg">
<path d="M7.13059 9.73589V12.2601H0V11.8346L3.16915 6.50267H0.28296V3.97852H7.10228V4.43229L3.98974 9.70746L7.13059 9.73589Z" fill="white"/>
<path d="M17.5435 3.97844V12.2599H15.3364L15.0818 11.6643C14.4027 12.2032 13.5538 12.5152 12.5917 12.5152C10.0734 12.5152 8.26245 10.6717 8.26245 8.09084C8.26245 5.53832 10.0734 3.69482 12.5917 3.69482C13.5538 3.69482 14.431 4.0068 15.1101 4.57403L15.393 3.92172H17.5435V3.97844ZM14.8554 8.1192C14.8554 7.04146 14.0631 6.24735 13.0161 6.24735C11.9409 6.24735 11.177 7.04146 11.177 8.1192C11.177 9.19693 11.9692 10.0194 13.0161 10.0194C14.0631 10.0194 14.8554 9.19693 14.8554 8.1192Z" fill="white"/>
<path d="M27.9282 7.26834V12.2599H25.0986V7.60867C25.0986 6.64439 24.759 6.16225 24.0234 6.16225C23.1744 6.16225 22.6369 6.7862 22.6369 7.83556V12.2599H19.8073V1.00049H22.6369V4.51729C23.2311 4.03515 24.0234 3.72317 24.8439 3.72317C26.7115 3.75154 27.9282 5.14124 27.9282 7.26834Z" fill="white"/>
<path d="M38.8504 3.97844V12.2599H36.6433L36.3886 11.6643C35.7095 12.2032 34.8606 12.5152 33.8985 12.5152C31.3802 12.5152 29.5693 10.6717 29.5693 8.09084C29.5693 5.53832 31.3802 3.69482 33.8985 3.69482C34.8606 3.69482 35.7378 4.0068 36.417 4.57403L36.6999 3.92172H38.8504V3.97844ZM36.1339 8.1192C36.1339 7.04146 35.3416 6.24735 34.2947 6.24735C33.2195 6.24735 32.4554 7.04146 32.4554 8.1192C32.4554 9.19693 33.2478 10.0194 34.2947 10.0194C35.3416 10.0194 36.1339 9.19693 36.1339 8.1192Z" fill="white"/>
<path d="M46.4336 3.94975V6.55899H45.3301C44.3114 6.55899 43.9152 7.01278 43.9152 8.06215V12.2596H41.0857V3.97811H42.9815L43.4342 4.88568C44.0285 4.205 44.7358 3.92139 45.6979 3.92139H46.4336V3.94975Z" fill="white"/>
<path d="M47.3109 8.11915C47.3109 5.56663 49.235 3.72314 51.9232 3.72314C54.6113 3.72314 56.5354 5.56663 56.5354 8.11915C56.5354 10.6716 54.583 12.5151 51.9232 12.5151C49.2633 12.5435 47.3109 10.6716 47.3109 8.11915ZM51.9515 9.96263C52.9984 9.96263 53.7341 9.19688 53.7341 8.11915C53.7341 7.04142 52.9984 6.27567 51.9515 6.27567C50.9045 6.27567 50.1688 7.04142 50.1688 8.11915C50.1688 9.22524 50.9045 9.96263 51.9515 9.96263Z" fill="white"/>
<path d="M66.2978 3.97852L62.9871 12.2601H60.4121L57.0449 3.97852H60.1575L61.7137 8.88502L63.2417 3.97852H66.2978Z" fill="white"/>
<path d="M67.656 3.97852L70.4855 6.04889V12.2601H67.656V3.97852Z" fill="#FFEB1B"/>
<path d="M67.656 0H70.4573L70.4855 4.14075L67.656 2.07038V0Z" fill="#1BADFF"/>
<path d="M76.7954 12.5435C74.1356 12.5435 72.2397 10.6716 72.2397 8.11915C72.2397 5.56663 74.1356 3.72314 76.7954 3.72314C79.1157 3.72314 80.8418 5.19793 81.153 7.38175H78.38C78.1536 6.70108 77.5028 6.27566 76.7671 6.27566C75.7768 6.27566 75.0694 7.04142 75.0694 8.11915C75.0694 9.19688 75.7768 9.96263 76.7671 9.96263C77.5311 9.96263 78.1536 9.48049 78.38 8.74309H81.1813C80.87 11.012 79.1157 12.5435 76.7954 12.5435Z" fill="white"/>
<path d="M91 7.26834V12.2599H88.1703V7.60867C88.1703 6.64439 87.8308 6.16225 87.0951 6.16225C86.2462 6.16225 85.7086 6.7862 85.7086 7.83556V12.2599H82.879V1.00049H85.7086V4.51729C86.3028 4.03515 87.0951 3.72317 87.9157 3.72317C89.7832 3.75154 91 5.14124 91 7.26834Z" fill="white"/>
</svg>
