<svg width="1022" height="790" viewBox="0 0 1022 790" fill="none" xmlns="http://www.w3.org/2000/svg">
<path d="M155.556 533C155.556 535.761 155.307 538 155 538C154.693 538 154.444 535.761 154.444 533C154.444 530.239 154.693 528 155 528C155.307 528 155.556 530.239 155.556 533Z" fill="#FBBB81"/>
<path d="M155 533.556C152.239 533.556 150 533.307 150 533C150 532.693 152.239 532.444 155 532.444C157.761 532.444 160 532.693 160 533C160 533.307 157.761 533.556 155 533.556Z" fill="#FBBB81"/>
<path d="M681 155L681.877 158.883L685.243 156.757L683.117 160.123L687 161L683.117 161.877L685.243 165.243L681.877 163.117L681 167L680.123 163.117L676.757 165.243L678.883 161.877L675 161L678.883 160.123L676.757 156.757L680.123 158.883L681 155Z" fill="#FBBB81"/>
<path d="M4 109L4.58469 111.588L6.82843 110.172L5.41156 112.415L8 113L5.41156 113.585L6.82843 115.828L4.58469 114.412L4 117L3.41531 114.412L1.17157 115.828L2.58844 113.585L0 113L2.58844 112.415L1.17157 110.172L3.41531 111.588L4 109Z" fill="#FBBB81"/>
<path d="M373.889 294C373.889 298.418 373.491 302 373 302C372.509 302 372.111 298.418 372.111 294C372.111 289.582 372.509 286 373 286C373.491 286 373.889 289.582 373.889 294Z" fill="#FBCA81"/>
<path d="M373 294.889C368.582 294.889 365 294.491 365 294C365 293.509 368.582 293.111 373 293.111C377.418 293.111 381 293.509 381 294C381 294.491 377.418 294.889 373 294.889Z" fill="#FBCA81"/>
<path d="M533.667 6C533.667 9.31371 533.368 12 533 12C532.632 12 532.333 9.31371 532.333 6C532.333 2.68629 532.632 0 533 0C533.368 0 533.667 2.68629 533.667 6Z" fill="#FBCA81"/>
<path d="M533 6.66667C529.686 6.66667 527 6.36819 527 6C527 5.63181 529.686 5.33333 533 5.33333C536.314 5.33333 539 5.63181 539 6C539 6.36819 536.314 6.66667 533 6.66667Z" fill="#FBCA81"/>
<path d="M849 559L849.585 561.588L851.828 560.172L850.412 562.415L853 563L850.412 563.585L851.828 565.828L849.585 564.412L849 567L848.415 564.412L846.172 565.828L847.588 563.585L845 563L847.588 562.415L846.172 560.172L848.415 561.588L849 559Z" fill="#FBCA81"/>
<path d="M313 782L313.585 784.588L315.828 783.172L314.412 785.415L317 786L314.412 786.585L315.828 788.828L313.585 787.412L313 790L312.415 787.412L310.172 788.828L311.588 786.585L309 786L311.588 785.415L310.172 783.172L312.415 784.588L313 782Z" fill="#FBCA81"/>
<path d="M1018 237L1018.58 239.588L1020.83 238.172L1019.41 240.415L1022 241L1019.41 241.585L1020.83 243.828L1018.58 242.412L1018 245L1017.42 242.412L1015.17 243.828L1016.59 241.585L1014 241L1016.59 240.415L1015.17 238.172L1017.42 239.588L1018 237Z" fill="#FBCA81"/>
</svg>
