<svg width="40" height="44" viewBox="0 0 40 44" fill="none" xmlns="http://www.w3.org/2000/svg">
<path d="M6.64946 12.25V22.2614C6.64946 22.6698 6.89784 23.0372 7.27687 23.1894L11.8149 25.0114C12.472 25.2752 13.1875 24.7914 13.1875 24.0834V15.2879M6.64946 12.25L13.1875 15.2879M6.64946 12.25L25.75 3.81807M6.64946 12.25L1.84 9.82M13.1875 15.2879L31.9375 6.63614M13.1875 15.2879L20.32 18.25M31.9375 6.63614L36.1579 8.55831C37.5844 9.20801 38.5 10.631 38.5 12.1985V32.1295C38.5 33.7209 37.5566 35.161 36.0976 35.7966L21.1762 42.297C20.148 42.7449 18.9789 42.7406 17.9541 42.2851L3.37545 35.8058C1.93093 35.1637 1 33.7313 1 32.1505V12.1771C1 10.6206 1.90291 9.20546 3.31448 8.54959L17.8937 1.7754C18.9529 1.28326 20.1743 1.27862 21.2371 1.76271L25.75 3.81807M31.9375 6.63614L25.75 3.81807M22.75 38.3125L30.0625 35.125M19.5625 42.58V20.8235C19.5625 19.256 20.4781 17.833 21.9046 17.1833L37.54 10.0622" stroke="#CF9056" stroke-width="1.4" stroke-linecap="round" stroke-linejoin="round"/>
</svg>
