<svg width="38" height="38" viewBox="0 0 38 38" fill="none" xmlns="http://www.w3.org/2000/svg">
<circle cx="19" cy="19" r="19" fill="#CF9056"/>
<path d="M22.6377 10H15.3623C12.4055 10 9.99997 12.4055 9.99997 15.3623V22.6377C9.99997 25.5945 12.4055 28 15.3623 28H22.6377C25.5945 28 28 25.5945 28 22.6377V15.3623C27.9999 12.4055 25.5944 10 22.6377 10ZM26.1892 22.6377C26.1892 24.5991 24.5991 26.1892 22.6377 26.1892H15.3623C13.4008 26.1892 11.8108 24.5991 11.8108 22.6377V15.3623C11.8108 13.4008 13.4008 11.8108 15.3623 11.8108H22.6377C24.5991 11.8108 26.1892 13.4008 26.1892 15.3623V22.6377Z" fill="#181818"/>
<path d="M19 14.3446C16.433 14.3446 14.3445 16.433 14.3445 19C14.3445 21.5669 16.433 23.6554 19 23.6554C21.567 23.6554 23.6554 21.567 23.6554 19C23.6554 16.433 21.567 14.3446 19 14.3446ZM19 21.8446C17.4289 21.8446 16.1553 20.5711 16.1553 19C16.1553 17.4289 17.4289 16.1554 19 16.1554C20.571 16.1554 21.8446 17.4289 21.8446 19C21.8446 20.571 20.571 21.8446 19 21.8446Z" fill="#181818"/>
<path d="M23.6643 15.4951C24.2804 15.4951 24.7798 14.9957 24.7798 14.3796C24.7798 13.7635 24.2804 13.2641 23.6643 13.2641C23.0482 13.2641 22.5488 13.7635 22.5488 14.3796C22.5488 14.9957 23.0482 15.4951 23.6643 15.4951Z" fill="#181818"/>
</svg>
