<svg width="38" height="38" viewBox="0 0 38 38" fill="none" xmlns="http://www.w3.org/2000/svg">
<circle cx="19.0001" cy="19" r="19" fill="#CF9056"/>
<path d="M24.4655 11.139C24.4655 11.139 26.1306 10.4573 25.9918 12.113C25.9456 12.7947 25.5293 15.1809 25.2055 17.7618L24.0955 25.4071C24.0955 25.4071 24.003 26.5271 23.1704 26.722C22.3378 26.9167 21.089 26.0402 20.8577 25.8454C20.6727 25.6993 17.3887 23.508 16.2323 22.4367C15.9085 22.1445 15.5385 21.5601 16.2786 20.8783L21.1352 16.0087C21.6903 15.4244 22.2453 14.0609 19.9326 15.7165L13.4571 20.3427C13.4571 20.3427 12.7171 20.8297 11.3295 20.3914L8.32296 19.4175C8.32296 19.4175 7.21287 18.687 9.10927 17.9565C13.7347 15.6678 19.4239 13.3304 24.4655 11.139Z" fill="#181818"/>
</svg>
